<svg xmlns="http://www.w3.org/2000/svg" width="220" height="150" viewBox="0 0 220 150"><rect id="decoration-center" x="8" y="34" width="84" height="54" fill="#2A2421"/><rect id="decoration-top" x="8" y="0" width="84" height="34" fill="#2A2421"/><rect id="decoration-bottom" x="8" y="88" width="84" height="1" fill="#4A3E3D"/><rect id="decoration-left" x="7" y="34" width="1" height="54" fill="#4A3E3D"/><rect id="decoration-right" x="92" y="34" width="1" height="54" fill="#4A3E3D"/><rect id="decoration-topleft" x="7" y="0" width="1" height="34" fill="#4A3E3D"/><rect id="decoration-topright" x="92" y="0" width="1" height="34" fill="#4A3E3D"/><rect id="decoration-bottomleft" x="7" y="88" width="1" height="1" fill="#4A3E3D"/><rect id="decoration-bottomright" x="92" y="88" width="1" height="1" fill="#4A3E3D"/><rect id="decoration-inactive-center" x="113" y="34" width="84" height="54" fill="#151313"/><rect id="decoration-inactive-top" x="113" y="0" width="84" height="34" fill="#151313"/><rect id="decoration-inactive-bottom" x="113" y="88" width="84" height="1" fill="#4A3E3D"/><rect id="decoration-inactive-left" x="112" y="34" width="1" height="54" fill="#4A3E3D"/><rect id="decoration-inactive-right" x="197" y="34" width="1" height="54" fill="#4A3E3D"/><rect id="decoration-inactive-topleft" x="112" y="0" width="1" height="34" fill="#4A3E3D"/><rect id="decoration-inactive-topright" x="197" y="0" width="1" height="34" fill="#4A3E3D"/><rect id="decoration-inactive-bottomleft" x="112" y="88" width="1" height="1" fill="#4A3E3D"/><rect id="decoration-inactive-bottomright" x="197" y="88" width="1" height="1" fill="#4A3E3D"/><rect id="decoration-maximized-center" x="8" y="110" width="84" height="30" fill="#2A2421"/><rect id="decoration-maximized-inactive-center" x="8" y="110" width="84" height="30" fill="#151313"/></svg>